<?xml version="1.0" encoding="UTF-8" standalone="no"?>
<!-- Created with Inkscape (http://www.inkscape.org/) -->

<svg
   xmlns:dc="http://purl.org/dc/elements/1.1/"
   xmlns:cc="http://creativecommons.org/ns#"
   xmlns:rdf="http://www.w3.org/1999/02/22-rdf-syntax-ns#"
   xmlns:svg="http://www.w3.org/2000/svg"
   xmlns="http://www.w3.org/2000/svg"
   xmlns:sodipodi="http://sodipodi.sourceforge.net/DTD/sodipodi-0.dtd"
   xmlns:inkscape="http://www.inkscape.org/namespaces/inkscape"
   width="29.040516mm"
   height="27.185242mm"
   viewBox="0 0 29.040516 27.185242"
   version="1.1"
   id="svg7722"
   inkscape:version="0.92.1 r15371"
   sodipodi:docname="dessin.svg"
   inkscape:export-filename="C:\Users\EPN-srv\Downloads\Site\logo.png"
   inkscape:export-xdpi="224.50999"
   inkscape:export-ydpi="224.50999">
  <defs
     id="defs7716">
    <inkscape:perspective
       sodipodi:type="inkscape:persp3d"
       inkscape:vp_x="3.056888 : 158.77062 : 1"
       inkscape:vp_y="0 : 1000 : 0"
       inkscape:vp_z="213.05689 : 158.77062 : 1"
       inkscape:persp3d-origin="108.05688 : 109.27062 : 1"
       id="perspective7724" />
  </defs>
  <sodipodi:namedview
     id="base"
     pagecolor="#ffffff"
     bordercolor="#666666"
     borderopacity="1.0"
     inkscape:pageopacity="0.0"
     inkscape:pageshadow="2"
     inkscape:zoom="1.4"
     inkscape:cx="351.66914"
     inkscape:cy="218.97935"
     inkscape:document-units="mm"
     inkscape:current-layer="layer1"
     showgrid="false"
     inkscape:window-width="1920"
     inkscape:window-height="1138"
     inkscape:window-x="-8"
     inkscape:window-y="-8"
     inkscape:window-maximized="1" />
  <metadata
     id="metadata7719">
    <rdf:RDF>
      <cc:Work
         rdf:about="">
        <dc:format>image/svg+xml</dc:format>
        <dc:type
           rdf:resource="http://purl.org/dc/dcmitype/StillImage" />
        <dc:title></dc:title>
      </cc:Work>
    </rdf:RDF>
  </metadata>
  <g
     inkscape:label="Calque 1"
     inkscape:groupmode="layer"
     id="layer1"
     transform="translate(-61.496052,-151.15674)">
    <path
       style="fill:#440055;fill-opacity:1;stroke-width:0.25253814"
       d="m 256.0192,582.46076 c -12.70898,-3.1504 -22.87995,-5.75867 -22.60216,-5.79616 0.27779,-0.0375 13.06254,-1.25961 28.41054,-2.71583 l 27.90546,-2.64768 25.58021,4.48144 c 14.70016,2.57534 25.38768,4.55762 25.12755,4.66055 -0.33819,0.13382 -55.26871,7.08702 -60.43047,7.64939 -0.57367,0.0625 -8.99381,-1.91405 -23.99113,-5.63171 z"
       id="path7770"
       inkscape:connector-curvature="0"
       transform="scale(0.26458333)" />
    <path
       style="fill:#660080;fill-opacity:1;stroke-width:0.25253814"
       d="m 255.95607,660.50731 -23.42291,-13.27884 v -35.18472 c 0,-19.3516 0.0675,-35.18473 0.1501,-35.18473 0.0825,0 8.46366,2.04537 18.62468,4.54526 10.16103,2.4999 20.6622,5.08231 23.33595,5.73869 l 4.86136,1.19342 v 42.74864 c 0,23.51175 -0.0284,42.73794 -0.0631,42.72487 -0.0347,-0.0131 -10.60345,-5.99924 -23.48605,-13.30259 z"
       id="path7774"
       inkscape:connector-curvature="0"
       transform="scale(0.26458333)" />
    <path
       style="fill:#8800aa;fill-opacity:1;stroke-width:0.25253814"
       d="m 279.50525,631.27356 v -42.7749 l 0.82075,-0.13855 c 1.08473,-0.18311 4.01091,-0.55421 34.9134,-4.42776 14.44518,-1.81066 26.40638,-3.34397 26.58046,-3.40735 0.25292,-0.0921 0.30365,7.47965 0.25253,37.69358 l -0.0639,37.80879 -29.92577,8.63016 c -16.45917,4.74659 -30.52239,8.80133 -31.25159,9.01055 l -1.32583,0.38038 z"
       id="path7776"
       inkscape:connector-curvature="0"
       transform="scale(0.26458333)" />
    <text
       xml:space="preserve"
       style="font-style:normal;font-variant:normal;font-weight:normal;font-stretch:normal;font-size:29.09403992px;line-height:1.25;font-family:Borealis;-inkscape-font-specification:Borealis;letter-spacing:0px;word-spacing:0px;fill:#ffffff;fill-opacity:1;stroke:none;stroke-width:0.72735101"
       x="67.370842"
       y="217.83745"
       id="text7780"
       transform="matrix(1.0616522,-0.39596558,0,0.94192806,0,0)"><tspan
         sodipodi:role="line"
         id="tspan7778"
         x="67.370842"
         y="217.83745"
         style="font-style:normal;font-variant:normal;font-weight:normal;font-stretch:normal;font-family:Borealis;-inkscape-font-specification:Borealis;fill:#ffffff;stroke-width:0.72735101">D</tspan></text>
    <text
       transform="matrix(1.0186865,0.13583445,0,0.98165627,0,0)"
       id="text7784"
       y="164.92415"
       x="58.774826"
       style="font-style:normal;font-variant:normal;font-weight:normal;font-stretch:normal;font-size:22.12219238px;line-height:1.25;font-family:Borealis;-inkscape-font-specification:Borealis;letter-spacing:0px;word-spacing:0px;fill:#ffffff;fill-opacity:1;stroke:none;stroke-width:0.55305481"
       xml:space="preserve"><tspan
         style="font-style:normal;font-variant:normal;font-weight:normal;font-stretch:normal;font-family:Borealis;-inkscape-font-specification:Borealis;fill:#ffffff;stroke-width:0.55305481"
         y="164.92415"
         x="58.774826"
         id="tspan7782"
         sodipodi:role="line">D</tspan></text>
  </g>
</svg>
